<?xml version="1.0" standalone="no"?><!DOCTYPE svg PUBLIC "-//W3C//DTD SVG 1.1//EN" "http://www.w3.org/Graphics/SVG/1.1/DTD/svg11.dtd"><svg t="1572919839396" class="icon" viewBox="0 0 1024 1024" version="1.1" xmlns="http://www.w3.org/2000/svg" p-id="5587" xmlns:xlink="http://www.w3.org/1999/xlink" width="200" height="200"><defs><style type="text/css"></style></defs><path d="M1015.242595 541.644157 526.862549 37.82856c-8.439206-8.702196-23.722284-8.702196-32.162514 0L6.332268 541.644157c-8.603959 8.877181-8.384971 23.066345 0.502443 31.659047 8.854669 8.592702 23.044856 8.396227 31.659047-0.480954l68.172659-70.331835 0 434.260451c0 12.374842 10.024308 22.388916 22.388916 22.388916l253.974365 0 255.515465 0 253.963109 0c12.364609 0 22.388916-10.014074 22.388916-22.388916L914.897189 502.471996l68.194148 70.350255c4.383844 4.526083 10.221806 6.79987 16.070001 6.79987 5.618974 0 11.237949-2.098801 15.57779-6.318916C1023.626543 564.710502 1023.84553 550.521339 1015.242595 541.644157zM405.418616 914.361951 405.418616 730.09111l210.737632 0 0 184.27084L405.418616 914.361951zM870.118333 914.361951 660.933057 914.361951 660.933057 707.702194c0-12.374842-10.024308-22.388916-22.388916-22.388916L383.0297 685.313278c-12.364609 0-22.388916 10.014074-22.388916 22.388916l0 206.659757L151.44425 914.361951 151.44425 456.296327 510.781292 85.580121l359.337041 370.69881L870.118333 914.361951z" p-id="5588"></path></svg>