<?xml version="1.0" standalone="no"?><!DOCTYPE svg PUBLIC "-//W3C//DTD SVG 1.1//EN" "http://www.w3.org/Graphics/SVG/1.1/DTD/svg11.dtd"><svg t="1571736817416" class="icon" viewBox="0 0 1024 1024" version="1.1" xmlns="http://www.w3.org/2000/svg" p-id="10895" xmlns:xlink="http://www.w3.org/1999/xlink" width="200" height="200"><defs><style type="text/css"></style></defs><path d="M355.470991 863.018585c-9.165754 0-16.954137-1.683339-23.487947-5.061272l0.065492 0.088004-39.833217-20.786419c-0.355087-0.185218-0.710175-0.370437-1.064238-0.555655-1.393743-0.431835-2.917446-1.130753-4.447289-2.335185-11.30344-5.962805-22.125927-11.873422-32.241308-17.607006-10.609639-5.847172-21.161972-11.795651-31.366382-17.684778-10.408047-5.997598-19.247366-11.079336-26.533306-15.259542-15.395642-8.897647-26.14445-19.941168-31.975249-32.838919-5.841032-12.94687-7.247054-26.683732-4.179183-40.834011l0.116657-0.540306 0.174985-0.524956c0.39295-1.179872 1.828648-6.762007 6.66377-33.060977 3.598968-19.588127 8.079002-43.179428 13.693884-72.122621 5.659907-29.222555 11.43647-59.749826 17.170055-90.730421l3.455705-18.681478c4.697999-25.39232 9.146311-49.438992 13.33368-72.129784 5.200442-28.126594 9.806343-52.645011 13.688767-72.877821 3.776-19.680225 5.861498-31.596625 6.54609-35.513842l0.059352-0.336668c7.818059-44.678572 42.214451-60.496839 59.506279-62.666248 2.511193-0.393973 7.998161-1.031493 26.826995-2.434445 12.037151-0.887206 26.428929-1.969864 43.166125-3.239787 0.336668-5.634324 0.938372-12.19474 1.803066-19.618826 1.480724-12.794397 5.059226-25.590841 10.635221-38.027082 5.739724-12.792351 14.128789-24.25645 24.932856-34.07712 11.441587-10.409071 26.919093-16.58984 45.998637-18.365276l0.130983-0.011256c21.687952-1.740644 39.821961 1.65264 53.894468 10.078543 13.592576 8.138354 24.362874 18.386766 32.009018 30.460756 7.366781 11.649318 12.617365 23.800056 15.606443 36.119639 1.659803 6.885827 2.922563 12.830213 3.807722 17.932418 7.399527-0.49835 14.367219-0.966001 20.901029-1.404999 10.44591-0.701988 19.783579-1.328251 28.011984-1.888l8.877181-0.606821c13.214976-0.909719 16.756639-1.140986 18.744923-0.997724 1.747807 0.12689 3.333932 0.215918 4.810562 0.299829 6.339382 0.35918 11.81407 0.669242 19.082614 3.2623 8.200776 2.918469 13.892405 6.369058 19.636223 11.910261 1.194198 1.1328 2.742461 2.75167 4.966105 5.195326 2.069125 2.292206 3.866051 4.412496 5.502317 6.490831 3.01159 3.27458 8.123005 10.877745 10.728342 15.190981 10.020214 7.823176 16.309454 19.065218 18.699897 33.449833l0.063445 0.430812c0.472767 3.853771 2.197038 15.71082 5.426593 37.312814 2.446725 16.359596 5.408173 35.484166 9.026584 58.278311 0.137123 0.48914 0.25685 1.00591 0.360204 1.554402 0.165776 0.883113 0.405229 2.194992 0.712221 3.904936 0.603751 3.356444 1.474584 8.278547 2.583848 14.537088 2.8847 16.276708 7.245008 40.874943 12.654204 70.612221l-20.136619 3.662413c-5.417383-29.782304-9.781784-54.408167-12.669554-70.703295-0.911766-5.143137-1.955538-9.704013-2.564405-13.105482l0.002047 0.00921c-0.001023-0.00307-0.001023-0.005117-0.002047-0.00921l0 0c-0.002047-0.016373-0.005117-0.032746-0.008186-0.049119-4.155646-26.067702-7.491625-47.546899-10.201339-65.664535-3.239787-21.674649-4.933359-33.319873-5.470595-37.610596-1.650593-9.707083-5.638417-16.676821-12.183484-21.301142-6.79066-4.808516-16.560164-6.824429-29.048593-5.999644-4.285606 0.530073-10.428513 1.172709-18.764366 1.961678-8.326643 0.775666-17.84953 1.546216-29.132504 2.357697-11.399631 0.817622-23.322172 1.738597-35.440164 2.736321l-7.14677 0.586354c-10.32516 0.847298-20.568455 1.686409-30.722722 2.539846l-0.13917 0.011256c-29.394471 2.066055-62.187341 4.692882-97.467869 7.809873l-27.499307 2.359744c-7.250124 0.522909-14.240329 1.044796-20.980847 1.563612-5.712095 0.515746-11.553127 1.035586-17.525142 1.560542-6.248308 0.539282-11.431354 0.807389-15.845896 0.817622-7.05058 0.405229-12.022825 3.084245-15.631002 8.417717-4.28356 6.328126-6.453992 15.06716-6.453992 25.976628L329.384869 815.926034c0 10.380418 3.038196 17.475 9.559727 22.330588 6.496971 4.839215 18.356067 5.570879 34.298154 2.118244l0.278339-0.056282c8.438183-1.584078 22.688745-4.466732 42.357713-8.571213 19.980054-4.158716 42.538839-8.842389 67.661006-14.025435 0.232291-0.095167 0.465604-0.209778 0.703011-0.317225 1.547239-0.705058 4.702092-2.1295 8.367575-1.959631 5.614881-2.068102 11.253298-3.664459 17.144472-4.857635l0.228197-0.044002c0.188288-0.033769 19.936051-3.671623 47.170323-14.316054l7.450692 19.061125c-28.351722 11.081383-48.852638 15.003715-50.877761 15.376199-5.726421 1.165546-11.169387 2.795673-16.636912 4.982478l-5.366218 2.145873-1.131777-0.856507c-0.776689 0.291642-1.644453 0.566912-2.592035 0.76134-25.239847 5.207605-47.8938 9.910721-67.944462 14.084787-19.694551 4.109598-34.035164 7.011694-42.62275 8.625448C369.374652 862.146729 362.065176 863.018585 355.470991 863.018585zM298.394041 817.392432c1.842974 0.517793 4.538363 1.705851 6.751774 4.668323l5.110391 6.835685c-0.88823-4.02978-1.333368-8.355295-1.333368-12.969383L308.922838 335.234087c0-15.0733 3.354398-27.672246 9.970072-37.446867 7.241938-10.703783 18.235316-16.721847 31.79003-17.400299l0.511653-0.013303c3.827165 0 8.655124-0.249687 14.349823-0.740874 5.965875-0.523933 11.813047-1.043772 17.530258-1.560542l0.137123-0.011256c6.771217-0.520863 13.792121-1.045819 21.073968-1.570775l27.263947-2.341325c35.348066-3.123131 68.238151-5.758144 97.735975-7.831362 10.146081-0.852414 20.38119-1.691525 30.696116-2.537799l7.141654-0.585331c12.187577-1.003863 24.182772-1.929955 35.650965-2.752694 11.135618-0.801249 20.519336-1.560542 28.686343-2.321882 8.18952-0.774643 14.394848-1.425466 18.429745-1.929955l0.564865-0.054235c3.421936-0.236384 6.726192-0.301875 9.904581-0.194428-0.306992-0.312108-0.578168-0.580215-0.815575-0.805342-3.163039-3.049452-6.17156-5.215792-12.354376-7.4159-4.499477-1.605567-7.652284-1.784646-13.371542-2.109034-1.528819-0.085958-3.167133-0.180102-4.967128-0.308015-0.00921 0-0.01842 0-0.026606 0-1.602498 0-8.287757 0.459464-15.999392 0.99056l-8.895601 0.608867c-8.230452 0.559748-17.574261 1.187035-28.027333 1.889023-9.271154 0.62217-19.414165 1.302669-30.426987 2.047636l-10.026354 0.678452-0.859577-10.012028c-0.48914-5.691629-2.056845-14.052041-4.659113-24.849968-2.459005-10.134825-6.837732-20.228717-13.007245-29.985942-5.916756-9.340739-14.406105-17.366529-25.229614-23.847128-10.330276-6.184863-24.348548-8.618285-41.676192-7.242961-14.529925 1.362021-25.990954 5.777587-34.065863 13.123902-8.712429 7.918343-15.449877 17.105586-20.028149 27.311019-4.716418 10.520611-7.738241 21.290909-8.978489 32.011064-1.316995 11.31265-1.984191 20.316721-1.984191 26.768667l0 9.485025-9.458419 0.718361c-20.706601 1.573845-38.164205 2.89084-52.343135 3.935636-17.312294 1.290389-23.302729 1.941212-25.27771 2.260483l-0.411369 0.058328c-0.346901 0.041956-34.777061 4.643764-41.99751 45.9004l-0.058328 0.335644c-0.692778 3.957125-2.799766 15.997346-6.607488 35.842323-3.875261 20.187785-8.471952 44.660152-13.663184 72.737628-4.186346 22.690792-8.635681 46.739511-13.334703 72.136947l-3.456728 18.681478c-5.743818 31.0379-11.531638 61.621453-17.202801 90.901313-5.602601 28.880771-10.069333 52.407604-13.657045 71.929216-4.595668 24.994254-6.265704 32.210609-7.17747 35.20378-2.025123 9.740852-1.067308 18.784832 2.923586 27.632337 4.028757 8.91095 11.948123 16.82827 23.536043 23.52581 7.267521 4.169973 16.118096 9.257851 26.543539 15.266705 10.110265 5.833869 20.564361 11.728112 31.074739 17.520025l0.10847 0.060375C275.091312 804.929586 286.47764 811.132868 298.394041 817.392432zM675.144684 830.167387c-91.233887 0-165.457356-74.222445-165.457356-165.454286 0-91.233887 74.223468-165.457356 165.457356-165.457356 91.230818 0 165.454286 74.223468 165.454286 165.457356C840.59897 755.944941 766.376525 830.167387 675.144684 830.167387zM675.144684 519.721869c-79.948867 0-144.991232 65.042365-144.991232 144.991232 0 79.94682 65.043389 144.988162 144.991232 144.988162 79.94682 0 144.988162-65.041342 144.988162-144.988162C820.132846 584.765257 755.091504 519.721869 675.144684 519.721869z" p-id="10896"></path><path d="M735.044936 596.563978l-41.926902 71.326489 33.036417 0 0 15.759939-38.491663 0 0 21.721721 38.491663 0 0 15.962553-38.491663 0 0 31.622208-19.801998 0 0-31.622208-39.906895 0 0-15.962553 39.906895 0 0-21.721721-39.906895 0 0-15.759939 34.046421 0-41.522696-71.326489 22.326495 0c19.397792 35.427884 31.184233 57.889455 35.361369 67.38676l0.404206 0c1.414209-3.904936 5.2864-11.786441 11.618619-23.641443l23.741727-43.745317L735.044936 596.563978z" p-id="10897"></path><path d="M437.680333 291.133926l15.137685 139.738962-20.34742 2.204202-15.137685-139.738962 20.34742-2.204202Z" p-id="10898"></path><path d="M402.305669 551.539528l-12.149714-133.496433 104.170524-9.479909 12.148691 133.496433L402.305669 551.539528zM412.392398 436.570054l8.44023 92.732008 63.406099-5.770424-8.44023-92.732008L412.392398 436.570054z" p-id="10899"></path><path d="M417.093467 287.2267l-20.466124 0c0-1.913583-0.172939-4.261047-0.372483-6.977925-0.419556-5.692652-0.940418-12.778024-0.257873-21.140483 0.167822-2.068102 0.310062-4.136204 0.453325-6.201236 0.674359-9.768481 1.372254-19.869536 4.628414-30.231535 3.894703-12.379958 9.630335-23.531949 17.048281-33.148981 8.391111-10.889001 19.892049-17.374716 34.18252-19.271926l0.185218-0.022513c16.301268-1.862417 29.940916 1.783623 40.545438 10.839883 9.528004 8.137331 17.030885 18.278295 22.299889 30.144554 4.479011 10.101055 6.086625 20.077268 7.642051 29.724998 0.268106 1.657756 0.535189 3.320629 0.819668 4.989641 1.604544 9.504468 1.983167 17.386996 2.258437 23.143093 0.063445 1.323135 0.121773 2.559289 0.191358 3.708462l-20.428262 1.232061c-0.073678-1.226944-0.138146-2.547009-0.205685-3.961218-0.265036-5.531993-0.594541-12.415774-1.9934-20.700461-0.291642-1.716084-0.569982-3.438309-0.846274-5.154393-1.409093-8.745175-2.741437-17.006326-6.14393-24.679076-4.016477-9.046027-9.698896-16.746406-16.883529-22.883173-6.179746-5.276167-14.303774-7.265474-24.834618-6.079462-8.81783 1.190105-15.550161 4.941546-20.578688 11.468193-5.944386 7.706519-10.56359 16.7198-13.731746 26.792203-2.530636 8.049327-3.114944 16.527418-3.735068 25.502837-0.148379 2.145873-0.296759 4.296863-0.471744 6.451946-0.553609 6.782473-0.115634 12.729929 0.270153 17.977443C416.885735 281.735639 417.093467 284.559964 417.093467 287.2267z" p-id="10900"></path></svg>